<?xml version="1.0" encoding="UTF-8"?>
<svg version="1.1" viewBox="0 0 2000 2000" width="1280" height="1280" xmlns="http://www.w3.org/2000/svg">
<path transform="translate(0)" d="m0 0h2e3v2e3h-2e3z" fill="#E9E4DE"/>
<path transform="translate(998,383)" d="m0 0 36 1 25 2 35 5 28 6 28 8 33 11 23 10 35 17 23 13 30 20 18 13 16 13 14 12 8 8 8 7 11 11 7 8 10 11 9 11 12 15 14 19 11 17 12 20 10 18 12 25 13 32 11 33 8 31 6 31 4 31 3 39v39l-3 36-5 32-6 27-8 29-10 29-11 27-9 20-12 22-13 22-12 18-10 14-11 14-9 11-12 14-11 12-24 24-11 9-10 9-17 13-11 8-33 22-18 10-15 8-23 11-21 9-28 10-30 9-36 8-28 4-21 2-24 1h-43l-31-2-37-5-33-7-32-9-31-11-25-11-34-17-22-13-24-16-19-14-16-13-11-9-16-15-18-18-7-8-12-14-9-11-13-17-15-22-13-21-12-22-8-16-9-20-11-29-8-24-8-30-7-35-3-23-3-48v-42l3-34 6-36 6-26 10-33 9-25 12-28 15-30 13-22 12-19 10-14 9-12 18-22 9-10 7-8 29-29 11-9 13-11 16-12 19-13 18-12 16-9 23-12 29-14 29-11 25-8 26-7 29-6 30-4 25-2z" fill="#E9E4DE"/>
<path transform="translate(801,645)" d="m0 0h14l11 4 8 6 5 6 5 10 5 20 2 18 1 19v35l-2 50-4 48-2 20 6-20 7-16 9-16 13-16 11-11 13-10 14-8 16-6 10-2h14l15 4 11 6 10 9 10 11 10 15 11 19 1 2 2-6 5-17 9-20 10-17 11-12 9-6 10-3 10 1 10 4 8 6 6 8 2 6v11l-3 14-9 30-5 23-3 22v20l3 17 5 10 2 2h7l6-4 7-7 10-14 11-18 16-28 10-13 7-7 10-6 9-1 11 4 7 7 5 10 3 15 7-19 8-15 10-14 10-11 13-10 16-9 17-6 19-4h14l16 3 13 5 13 8 9 8 9 13 5 10 3 10 1 11-2 12-8 15-11 11-10 6-15 6-21 5-32 5-10 4-6 9-2 11 1 10 2 4 5 3 7-1 16-8 18-13 12-9 10-6 5-2h12l6 3 5 5 4 12v16l-4 16-8 16-9 10-13 9-15 7-16 5-9 2-9 1h-19l-14-3-13-5-13-7-13-12-5-6-4-7 1 14 1 46 1 153v49l-4 18-8 16-5 4-8 3-10-1-9-5-7-7-8-14-8-21-6-24-6-36-4-40-2-37v-34l2-34 2-9-13 9-13 6-10 3-13 1-15-2-15-6-11-7-10-9-9-12-8-14-2-6 1 10v20l-3 15-5 9-7 5-8 1-9-4-7-6-5-10-4-17-4-33-8 10h-2l-1 3-14 11-19 10-11 4-16 3h-13l-10-2-12-5-9-6-8-7-9-15-6-14-5-20-2-13-1 21-3 17-4 17-5 15-7 14-9 10-6 2h-7l-12-6-8-8-8-13-6-18-2-12v-33l3-42 1-6-21 2-32 3-16 4-8 5-3 5-2 10-1 44-2 32-3 14-5 12-8 11-9 7-8 3h-13l-12-5-10-9-6-8-6-13-4-17-2-20-1-128-1-55v-71l2-12 5-14 7-10 11-8 11-5 13-3h16l11 4 9 7 7 11 4 10 4 20 1 12v30l-3 38-2 18 48 1 23 1-7-51-2-19v-32l4-21 5-12 7-11 12-12 9-6 11-4z" fill="#FC944F"/>
<path transform="translate(998,383)" d="m0 0 36 1 25 2 35 5 28 6 28 8 33 11 23 10 35 17 23 13 30 20 18 13 16 13 14 12 8 8 8 7 11 11 7 8 10 11 9 11 12 15 14 19 11 17 12 20 10 18 12 25 13 32 11 33 8 31 6 31 4 31 3 39v39l-3 36-5 32-6 27-8 29-10 29-11 27-9 20-12 22-13 22-12 18-10 14-11 14-9 11-12 14-11 12-24 24-11 9-10 9-17 13-11 8-33 22-18 10-15 8-23 11-21 9-28 10-30 9-36 8-28 4-21 2-24 1h-43l-31-2-37-5-33-7-32-9-31-11-25-11-34-17-22-13-24-16-19-14-16-13-11-9-16-15-18-18-7-8-12-14-9-11-13-17-15-22-13-21-12-22-8-16-9-20-11-29-8-24-8-30-7-35-3-23-3-48v-42l3-34 6-36 6-26 10-33 9-25 12-28 15-30 13-22 12-19 10-14 9-12 18-22 9-10 7-8 29-29 11-9 13-11 16-12 19-13 18-12 16-9 23-12 29-14 29-11 25-8 26-7 29-6 30-4 25-2zm-30 6-41 4-30 5-25 6-27 8-28 10-24 10-25 12-19 10-17 10-18 12-14 10-16 12-14 12-24 22-12 12-7 8-11 12-11 14-14 18-24 36-12 21-13 25-13 30-9 25-8 25-7 29-5 27-3 22-2 25v53l3 39 5 35 6 27 8 29 9 26 13 32 8 17 12 22 13 22 18 27 13 17 11 13 9 11 16 17 14 14 8 7 10 9 11 9 15 12 23 16 19 12 21 12 22 12 30 13 27 10 30 9 26 6 27 5 22 3 28 2h56l33-3 32-5 28-6 26-7 32-11 24-10 25-12 27-15 19-12 18-12 15-11 16-13 14-12 12-11 6-5v-2l4-2 7-8 8-8 9-11 10-11 10-13 13-18 13-20 13-22 14-26 9-20 12-31 10-31 9-36 6-37 3-29 1-29-1-30-3-34-5-33-6-29-7-26-11-33-12-29-8-17-12-22-8-14-20-30-14-19-18-22-9-10-11-12-14-14-8-7-14-13-14-11-17-13-30-20-23-13-15-8-26-12-28-11-33-11-30-8-28-5-35-4-12-1z" fill="#1A1B1D"/>
<path transform="translate(998,383)" d="m0 0 36 1 25 2 35 5 28 6 28 8 33 11 23 10 35 17 23 13 30 20 18 13 16 13 14 12 8 8 8 7 11 11 7 8 10 11 9 11 12 15 14 19 11 17 12 20 10 18 12 25 13 32 3 16 5 14 2 13 2 3 2 13 2 5 1 11-3-4-8-32-8-25-9-25-10-23-8-17-12-22-13-21-13-19-14-19-18-22-9-10-11-12-13-13-8-7-14-13-14-11-17-13-30-20-23-13-15-8-26-12-28-11-33-11-30-8-28-5-35-4-12-1h-66l-41 4-30 5-25 6-27 8-28 10-24 10-25 12-19 10-17 10-18 12-14 10-16 12-14 12-24 22-11 11-7 8-11 12-11 14-14 18-24 36-12 21-13 25-13 30-9 25-8 25-7 29-5 27-3 22-2 14-2 1v-17h-1v-13l6-34 8-32 12-36 11-28 7-16 10-19 14-25 14-22 10-14 9-12 18-22 9-10 7-8 29-29 11-9 13-11 16-12 19-13 18-12 16-9 23-12 29-14 29-11 25-8 26-7 29-6 30-4 25-2z" fill="#1A1B1D"/>
<path transform="translate(630,1077)" d="m0 0h11l12 1 10 4 7 6 5 10 1 3v16l-4 10-4 5-10 6-8 2-20 1-1 26-1 1h-18v-90z" fill="#29292B"/>
<path transform="translate(1086,1076)" d="m0 0h14l10 3 9 6 6 9 2 9-3 1h-19l-4-8-9-3-8 2-2 8 2 6 9 3 16 4 11 6 5 6 3 10-1 10-4 8-5 5-5 4-13 4h-12l-11-3-8-6-7-8-3-10 1-4h19l3 3 3 6v2l10 2 7-2 4-5v-6l-6-5-21-6-9-5-6-7-2-4v-16l4-8 8-7 7-3z" fill="#29292B"/>
<path transform="translate(806,1077)" d="m0 0h17l3 4 17 49 11 31 1 7h-19l-7-20h-29l-6 18-1 1h-19l3-11 10-28 16-45 2-5z" fill="#29292B"/>
<path transform="translate(977,1078)" d="m0 0h61v10l-1 7h-40v19h34v16h-34v20h40l1 5-1 13h-60z" fill="#29292B"/>
<path transform="translate(908,1076)" d="m0 0h14l10 3 10 6 8 11 4 10-1 3h-18l-6-10-6-4-4-1h-8l-6 3-6 7-3 9v19l4 10 6 7 3 1h13l6-4 7-9h19l-3 9-6 10-8 7-10 5-13 2-10-2-12-6-10-10-6-12-2-9v-17l3-12 6-11 8-8 12-6z" fill="#29292B"/>
<path transform="translate(711,1077)" d="m0 0h5l1 5v67l2 1h36v13l-2 5h-55l-1-1v-89z" fill="#29292B"/>
<path transform="translate(961,847)" d="m0 0h8l5 5 2 4v9l-4 12-9 15-6 8-10 10-4 2h-10l-6-5-2-10 5-16 6-11 9-12 7-7z" fill="#E9E5DF"/>
<path transform="translate(1480,722)" d="m0 0 2 2 10 32 7 28 6 33 4 35 2 29v39l-3 36-5 32-4 18-1-4-4 1 1-8 6-37 3-29 1-29-1-30-3-34-5-33-2-11 1-5-1-9-2-3-2-13-2-5-3-13-4-12z" fill="#28292B"/>
<path transform="translate(630,1095)" d="m0 0h11l10 2 6 6v12l-5 6-5 2-16 1-2-1v-27z" fill="#EADED2"/>
<path transform="translate(1e3 1150)" d="m0 0h33l1 5-1 13h-60v-10l2-1 6 8h18l3-3 2-1-1-3h-2l-2-3v-3h-5v-1z" fill="#19191B"/>
<path transform="translate(908,1076)" d="m0 0h14l10 3 10 6 8 11 4 10-1 3h-18l-1-3 7-1 1-3h2l1-6-2-1v-2l-4-2-4-5-1-2-7-4h-17l-12 2-3 1-1 2h-2v2l-3 1v4 2h-2v3l-5 4v-2h-2l-1 6-2 2 1-7 6-10 7-7 12-6z" fill="#191A1C"/>
<path transform="translate(1351,855)" d="m0 0 5 2-1 6-7 6-13 4h-10l1-5 7-7 8-4z" fill="#E9E5DF"/>
<path transform="translate(492,828)" d="m0 0 3 2v20h1v78l-3 1v-40l-2-9-1-20v-12z" fill="#2A2A2C"/>
<path transform="translate(935,1137)" d="m0 0h19l-3 9-6 10-8 7-5 1 3-4 1-5 3-4-1-6-4-1-5 3 2-4z" fill="#17181A"/>
<path transform="translate(813,1103)" d="m0 0h2l4 11 5 15v2l-15 1-4-1 3-11z" fill="#EBDBCE"/>
<path transform="translate(732,1150)" d="m0 0h23v13l-1 4h-10l1-7 1-3-8-1-8-2-4 2-2-4-2-1z" fill="#18191B"/>
<path transform="translate(908,1076)" d="m0 0h14l5 1v2l-25 2-7 2-1 2h-2v2l-3 1v4 2h-2v3l-5 4v-2h-2l-1 6-2 2 1-7 6-10 7-7 12-6z" fill="#1B1C1E"/>
<path transform="translate(1e3 1115)" d="m0 0h30v11l-1 3h-13l3-1 2-9-2-1 1-2h-20z" fill="#161719"/>
<path transform="translate(1059,1139)" d="m0 0h19v1l-13 1 1 9 3 3 1 3-1 2 4 1 3 3 2 3-6-2-8-8-4-9z" fill="#18191B"/>
<path transform="translate(669,1091)" d="m0 0h3l4 10v16l-3 8-2 1 2-10-1-8v-10l-3-4z" fill="#191A1C"/>
<path transform="translate(843,1135)" d="m0 0 3 3 9 25v4h-6l4-4h-4l-2-5v-7z" fill="#1A1A1C"/>
<path transform="translate(1496 1e3)" d="m0 0h2v9l-3 12h-1l-1-5-3 1 2-11 2-5z" fill="#1B1B1D"/>
<path transform="translate(1121,1091)" d="m0 0 3 1 3 9v2l-3 1h-19v-3l17 1v-2h-2z" fill="#1B1C1E"/>
<path transform="translate(779,1153)" d="m0 0 1 3v9h10l1-4 4-2-1 7-1 1h-19l3-11z" fill="#18191B"/>
<path transform="translate(878,1140)" d="m0 0 1 3h4l2 6 4 2 1 6 5 4 3 3-6-2-10-10-4-8z" fill="#18191B"/>
<path transform="translate(494,901)" d="m0 0h1l1 13v14l-3 1v-27z" fill="#28282A"/>
<path transform="translate(978,1157)" d="m0 0 4 4 3 4 15 1v1h-23v-9z" fill="#161719"/>
<path transform="translate(1493,1017)" d="m0 0h1v10l-3 6h-2l-1-4 1-9z" fill="#18191B"/>
<path transform="translate(715,1104)" d="m0 0h1v36h-2l-1-10z" fill="#161719"/>
<path transform="translate(1117,1122)" d="m0 0 4 1 4 5 2 5v8l-3-3v-5l-3-1-1-5-2-3z" fill="#19191B"/>
<path transform="translate(884,1092)" d="m0 0h3 2v2h-2v3l-5 4v-2h-2l-1 6-2 2 1-7 4-7z" fill="#18191B"/>
<path transform="translate(1283,1311)" d="m0 0 2 1-8 6-4 1v2h-3v2l-9 5-3-1 24-15z" fill="#2A2A2C"/>
<path transform="translate(711,1077)" d="m0 0h5l1 5-2 5h-2l-3-6v-2l-3-1z" fill="#1A1B1D"/>
<path transform="translate(557,1137)" d="m0 0 4 5 5 9v2l-3 1v-3h-2v-5l-4-2-1-5z" fill="#2A2A2C"/>
<path transform="translate(1086,1076)" d="m0 0h14l6 2v1h-22v-2z" fill="#1D1E20"/>
<path transform="translate(624,1159)" d="m0 0 4 1v7h-17l1-2h15l-4-2z" fill="#161719"/>
<path transform="translate(1490,770)" d="m0 0h2l2 7 1 4 1 10-3-4-3-13z" fill="#1C1D1F"/>
<path transform="translate(497,942)" d="m0 0h1l2 20v6l-3-3z" fill="#2A2A2C"/>
<path transform="translate(1501,983)" d="m0 0h1v10l-1 5-3-1 1-10z" fill="#1A1B1D"/>
<path transform="translate(835,1157)" d="m0 0 2 2 2 5 5 2v1h-8l-2-4v-5z" fill="#18191B"/>
<path transform="translate(806,1077)" d="m0 0h17l-1 4h-2v-2h-15z" fill="#1D1E20"/>
<path transform="translate(1493 1e3)" d="m0 0 2 2v5l-3 8h-2l2-11z" fill="#2A2A2C"/>
<path transform="translate(698,1159)" d="m0 0h2l4 8h-6z" fill="#161719"/>
<path transform="translate(492,828)" d="m0 0 3 2v9l-3 2z" fill="#252527"/>
<path transform="translate(1367,1240)" d="m0 0 1 3h-2l-2 4h-2l-2 4-2-1 7-8z" fill="#2A2A2C"/>
<path transform="translate(1071,1082)" d="m0 0 2 1-8 11-1-4z" fill="#1C1D1F"/>
<path transform="translate(1504,962)" d="m0 0h1v15l-3-1z" fill="#191A1C"/>
<path transform="translate(1488,759)" d="m0 0 3 3 1 6-1 2h-2l-1-4z" fill="#191A1C"/>
</svg>
